HIERARCHY
ROOT Hips
{
	OFFSET 0.000000 0.000000 0.000000
	CHANNELS 6 Xposition Yposition Zposition Xrotation Yrotation Zrotation
	JOINT LeftUpLeg_virtual
	{
		OFFSET 0.000000 0.000000 0.000000
		CHANNELS 3 Xrotation Yrotation Zrotation
		JOINT LeftUpLeg
		{
			OFFSET 15.427100 -6.655098 0.678600
			CHANNELS 3 Xrotation Yrotation Zrotation
			JOINT LeftLeg
			{
				OFFSET 4.081073 -39.591068 13.024000
				CHANNELS 3 Xrotation Yrotation Zrotation
				JOINT LeftFoot
				{
					OFFSET -4.081074 -37.707932 -15.979700
					CHANNELS 3 Xrotation Yrotation Zrotation
					JOINT LeftToeBase
					{
						OFFSET 5.346399 -15.068900 20.645000
						CHANNELS 3 Xrotation Yrotation Zrotation
						JOINT LeftToe_End
						{
							OFFSET 2.754700 0.931300 11.300900
							CHANNELS 3 Xrotation Yrotation Zrotation
							End Site
							{
								OFFSET 0 0 0
							}
						}
					}
				}
			}
		}
	}
	JOINT RightUpLeg_virtual
	{
		OFFSET 0.000000 0.000000 0.000000
		CHANNELS 3 Xrotation Yrotation Zrotation
		JOINT RightUpLeg
		{
			OFFSET -15.569500 -6.655098 0.678600
			CHANNELS 3 Xrotation Yrotation Zrotation
			JOINT RightLeg
			{
				OFFSET -4.081825 -39.591045 13.023800
				CHANNELS 3 Xrotation Yrotation Zrotation
				JOINT RightFoot
				{
					OFFSET 4.081824 -37.707954 -15.979600
					CHANNELS 3 Xrotation Yrotation Zrotation
					JOINT RightToeBase
					{
						OFFSET -5.346400 -15.068900 20.645000
						CHANNELS 3 Xrotation Yrotation Zrotation
						JOINT RightToe_End
						{
							OFFSET -2.754700 0.931300 11.300900
							CHANNELS 3 Xrotation Yrotation Zrotation
							End Site
							{
								OFFSET 0 0 0
							}
						}
					}
				}
			}
		}
	}
	JOINT Spine_virtual
	{
		OFFSET 0.000000 0.000000 0.000000
		CHANNELS 3 Xrotation Yrotation Zrotation
		JOINT Spine
		{
			OFFSET -0.279200 12.230698 -2.892100
			CHANNELS 3 Xrotation Yrotation Zrotation
			JOINT Spine1
			{
				OFFSET -0.232667 10.192268 -1.242267
				CHANNELS 3 Xrotation Yrotation Zrotation
				JOINT Spine1_split
				{
					OFFSET -0.232667 10.192268 -1.242267
					CHANNELS 3 Xrotation Yrotation Zrotation
					JOINT Spine2
					{
						OFFSET -0.232667 10.192268 -1.242267
						CHANNELS 3 Xrotation Yrotation Zrotation
						JOINT Neck_virtual
						{
							OFFSET 0.000000 0.000000 0.000000
							CHANNELS 3 Xrotation Yrotation Zrotation
							JOINT Neck
							{
								OFFSET -0.418800 17.814194 8.416900
								CHANNELS 3 Xrotation Yrotation Zrotation
								JOINT Head
								{
									OFFSET 0.000000 7.031097 3.806800
									CHANNELS 3 Xrotation Yrotation Zrotation
									JOINT HeadTop_End
									{
										OFFSET 0.000000 24.646606 12.978600
										CHANNELS 3 Xrotation Yrotation Zrotation
										End Site
										{
											OFFSET 0 0 0
										}
									}
								}
							}
						}
						JOINT LeftShoulder_virtual
						{
							OFFSET 0.000000 0.000000 0.000000
							CHANNELS 3 Xrotation Yrotation Zrotation
							JOINT LeftShoulder
							{
								OFFSET 8.476499 7.247704 -3.868750
								CHANNELS 3 Xrotation Yrotation Zrotation
								JOINT LeftShoulder_split
								{
									OFFSET 8.476499 7.247704 -3.868750
									CHANNELS 3 Xrotation Yrotation Zrotation
									JOINT LeftArm
									{
										OFFSET 9.308998 -2.777710 0.208600
										CHANNELS 3 Xrotation Yrotation Zrotation
										JOINT LeftForeArm
										{
											OFFSET 29.972298 0.000000 0.000000
											CHANNELS 3 Xrotation Yrotation Zrotation
											JOINT LeftHand
											{
												OFFSET 26.026505 0.000000 0.000000
												CHANNELS 3 Xrotation Yrotation Zrotation
												End Site
												{
													OFFSET 0 0 0
												}
											}
										}
									}
								}
							}
						}
						JOINT RightShoulder_virtual
						{
							OFFSET 0.000000 0.000000 0.000000
							CHANNELS 3 Xrotation Yrotation Zrotation
							JOINT RightShoulder
							{
								OFFSET -7.570500 7.247704 -3.868750
								CHANNELS 3 Xrotation Yrotation Zrotation
								JOINT RightShoulder_split
								{
									OFFSET -7.570500 7.247704 -3.868750
									CHANNELS 3 Xrotation Yrotation Zrotation
									JOINT RightArm
									{
										OFFSET -9.308998 -2.777710 0.208500
										CHANNELS 3 Xrotation Yrotation Zrotation
										JOINT RightForeArm
										{
											OFFSET -29.972300 0.000000 0.000000
											CHANNELS 3 Xrotation Yrotation Zrotation
											JOINT RightHand
											{
												OFFSET -26.026505 0.000000 0.000000
												CHANNELS 3 Xrotation Yrotation Zrotation
												End Site
												{
													OFFSET 0 0 0
												}
											}
										}
									}
								}
							}
						}
					}
				}
			}
		}
	}
}
MOTION
Frames: 11
Frame Time: 0.03333333
-11.938189 71.915382 -124.266159 0.000000 0.000000 0.000000 24.246384 -67.517062 24.046687 -47.517636 -22.612304 25.655085 37.601793 -17.909427 -1.856067 23.838974 -0.990880 -26.250266 -16.199624 0.833826 -8.310536 0.000000 0.000000 0.000000 24.188048 -66.527996 24.013765 -36.740458 -1.939631 -33.071564 48.470116 12.608249 3.647723 -12.771906 -10.814925 25.028786 1.839475 6.443866 -0.924423 0.000000 0.000000 0.000000 17.264382 -56.351779 16.532642 0.405355 13.140724 -0.567344 3.382892 13.472935 2.863625 0.101551 -1.790646 0.481914 0.000000 0.000000 0.000000 8.617915 16.675707 2.947881 -7.721035 27.712922 0.716456 -46.125104 -24.594143 -77.259774 0.000000 0.000000 0.000000 8.185161 11.947228 5.434259 -1.350781 -11.534044 3.920997 -9.594666 1.084973 1.420856 -50.396629 -8.384697 -63.972665 149.963128 -72.433828 150.751742 0.000000 0.000000 0.000000 2.135182 10.933173 6.463369 -11.475216 0.527396 -18.675428 -56.059239 -18.764060 -13.302856 -96.297123 37.458492 125.669457 -8.968454 13.719615 20.432364 0.000000 0.000000 0.000000 
-10.113459 72.988525 -130.191299 0.000000 0.000000 0.000000 25.421206 -68.350591 24.557742 -49.671595 -20.765196 25.704872 37.176139 -16.436615 -1.473752 25.220308 -1.606240 -25.472854 -16.939048 0.482605 -7.097689 0.000000 0.000000 0.000000 25.259605 -66.066562 23.742096 -36.747999 -2.446098 -29.939660 50.087338 12.678715 4.068006 -13.202763 -8.662959 21.544292 -1.050369 6.569115 0.991446 0.000000 0.000000 0.000000 18.502141 -56.622746 16.345824 1.381682 13.046093 -0.673672 3.567539 12.985823 2.766692 0.125428 -1.726107 0.506120 0.000000 0.000000 0.000000 8.360556 16.162536 3.100869 -10.820543 27.427132 1.835165 -45.770064 -25.736826 -77.705095 0.000000 0.000000 0.000000 7.880323 11.523350 5.664515 -1.106126 -11.320837 4.723273 -9.781481 0.988294 0.559300 -49.730382 -7.597304 -64.357007 154.501515 -69.322021 156.252913 0.000000 0.000000 0.000000 1.594891 10.221183 6.381102 -11.755290 -0.648446 -18.160088 -56.144592 -18.795658 -14.333224 -95.506037 36.229779 125.367453 -10.463364 16.985212 21.515810 0.000000 0.000000 0.000000 
-8.028948 73.466812 -134.214050 0.000000 0.000000 0.000000 23.995810 -67.308967 22.215576 -53.289238 -19.483214 24.794365 39.694747 -15.090193 -0.415374 25.625225 -2.618554 -24.493007 -20.149435 0.325005 -6.235520 0.000000 0.000000 0.000000 24.280493 -65.202912 21.684382 -36.956388 -2.606702 -27.045645 50.624922 12.586391 4.283939 -13.053704 -6.759528 18.683650 -2.485143 6.471755 2.460515 0.000000 0.000000 0.000000 19.340598 -56.882184 15.724004 2.137577 13.101286 -0.498372 3.811158 12.515213 2.666265 0.162009 -1.623462 0.511031 0.000000 0.000000 0.000000 8.207364 15.618795 3.223402 -13.904515 26.922002 3.521279 -45.880641 -27.432816 -78.040362 0.000000 0.000000 0.000000 7.553341 11.082314 5.752983 -0.874927 -10.735490 5.912427 -10.280537 1.520735 -0.442981 -49.871822 -6.773078 -65.054997 157.153760 -66.941004 160.204286 0.000000 0.000000 0.000000 1.101619 9.550493 6.298913 -12.031704 -1.693664 -17.703744 -56.372386 -18.830874 -14.404297 -94.827744 35.748414 125.028020 -12.091329 19.946164 22.841956 0.000000 0.000000 0.000000 
-6.090640 73.481102 -136.704254 0.000000 0.000000 0.000000 21.480311 -64.963609 18.717187 -57.259351 -18.723758 23.394658 43.201814 -14.053909 1.077121 25.095952 -3.827116 -23.910853 -22.631012 0.484162 -6.313239 0.000000 0.000000 0.000000 22.554852 -64.541456 19.201412 -37.658805 -2.646053 -25.210452 50.233811 12.587833 4.369951 -11.665859 -5.150859 17.434302 -3.011612 6.280890 2.890810 0.000000 0.000000 0.000000 19.831968 -57.030912 14.944560 2.579820 13.359063 -0.063244 4.125327 12.120072 2.494966 0.163509 -1.535211 0.457976 0.000000 0.000000 0.000000 8.128650 15.131528 3.277814 -16.638476 26.349307 5.448405 -46.490994 -29.316196 -78.363307 0.000000 0.000000 0.000000 7.221776 10.673478 5.642182 -0.744344 -9.735077 7.247256 -10.874272 2.700357 -1.469938 -50.500049 -6.043521 -65.934507 158.521095 -65.385619 162.998448 0.000000 0.000000 0.000000 0.727555 8.993025 6.195233 -12.315785 -2.742719 -17.429821 -56.540613 -19.089195 -13.511871 -94.306143 36.113840 124.971425 -13.583902 22.075528 24.181066 0.000000 0.000000 0.000000 
-4.469884 73.200455 -138.061218 0.000000 0.000000 0.000000 19.509858 -62.593028 15.796783 -60.180851 -18.421476 22.128408 45.537752 -13.990825 2.845341 24.216188 -5.620210 -24.544840 -23.618097 0.795673 -6.581478 0.000000 0.000000 0.000000 21.058354 -64.723453 17.291131 -38.860389 -2.473862 -24.849184 49.906188 13.035029 4.257068 -9.707528 -3.806120 18.300331 -2.870481 6.063748 1.923932 0.000000 0.000000 0.000000 19.943862 -57.254634 14.264725 2.788546 13.743430 0.406806 4.544244 11.841478 2.185566 0.158380 -1.493333 0.388542 0.000000 0.000000 0.000000 8.161131 14.747367 3.254793 -18.953237 25.887073 7.474945 -47.401742 -30.820945 -78.651548 0.000000 0.000000 0.000000 6.875247 10.359337 5.323660 -0.780512 -8.442653 8.387064 -11.010600 3.980823 -2.259409 -51.400548 -5.613066 -66.972518 158.931084 -64.563176 164.706610 0.000000 0.000000 0.000000 0.542376 8.608012 6.069067 -12.596747 -3.818875 -17.409969 -56.661047 -19.543418 -11.654435 -94.000984 37.167728 125.274590 -14.726395 23.260139 25.322986 0.000000 0.000000 0.000000 
-3.415016 72.756775 -138.669907 0.000000 0.000000 0.000000 18.365911 -61.037405 14.038165 -61.295654 -18.066651 21.204934 45.841624 -14.425508 4.459509 23.039147 -7.057184 -25.591286 -22.328179 1.033027 -6.848839 0.000000 0.000000 0.000000 19.720824 -65.078910 15.799814 -39.997933 -2.130270 -25.561168 50.127588 13.696585 3.948310 -8.581316 -2.985278 20.772950 -2.638407 5.865522 -0.238484 0.000000 0.000000 0.000000 19.629822 -57.540560 13.733586 2.788104 14.161199 0.748721 5.021776 11.678860 1.796220 0.165473 -1.540415 0.341453 0.000000 0.000000 0.000000 8.338504 14.476649 3.161057 -20.845292 25.525312 9.505264 -48.406295 -31.547776 -78.830997 0.000000 0.000000 0.000000 6.554961 10.169037 4.864746 -0.994132 -7.068452 9.222090 -10.638901 4.993005 -2.673018 -52.399873 -5.597273 -68.118576 158.525043 -64.296184 165.305058 0.000000 0.000000 0.000000 0.592874 8.398835 5.926986 -12.915580 -5.046397 -17.714647 -56.783143 -20.013335 -9.406908 -94.024569 38.461328 125.774819 -15.509507 23.765780 26.180730 0.000000 0.000000 0.000000 
-3.057489 72.186821 -138.782349 0.000000 0.000000 0.000000 17.706652 -60.649799 13.332602 -61.112667 -17.512658 20.589474 44.827949 -15.019864 5.699620 22.114344 -7.597041 -26.319405 -18.684681 1.124808 -7.210287 0.000000 0.000000 0.000000 18.695288 -64.901632 14.821832 -40.603706 -1.435183 -26.567211 51.117549 14.121798 3.516121 -8.967218 -3.131186 23.428606 -2.708237 5.657649 -2.991432 0.000000 0.000000 0.000000 19.001866 -57.833677 13.318336 2.617450 14.480348 0.879146 5.546727 11.600203 1.392853 0.197326 -1.614067 0.322929 0.000000 0.000000 0.000000 8.594459 14.339245 3.028429 -22.333749 25.257841 11.508280 -49.538262 -31.591776 -78.849480 0.000000 0.000000 0.000000 6.341627 10.119842 4.357092 -1.346669 -5.776000 9.735996 -9.647807 5.394566 -2.358459 -53.272388 -6.153132 -69.324999 157.373596 -64.270093 164.701146 0.000000 0.000000 0.000000 0.866286 8.383414 5.763192 -13.258207 -6.323871 -18.386284 -56.910560 -20.344292 -7.269921 -94.462418 39.605952 126.206747 -16.006746 23.850182 26.742496 0.000000 0.000000 0.000000 
-3.254720 71.587486 -138.621475 0.000000 0.000000 0.000000 17.253543 -61.186645 13.319893 -59.782392 -16.606727 20.394728 43.156065 -15.623399 6.292969 21.687244 -7.279055 -25.983756 -14.879927 0.989263 -7.056086 0.000000 0.000000 0.000000 17.672377 -64.243673 14.115524 -40.630442 -0.407034 -27.261006 52.826828 14.179459 3.039688 -10.675380 -4.278417 25.427754 -3.493143 5.513079 -5.523437 0.000000 0.000000 0.000000 18.074933 -57.700946 12.738302 2.391979 14.611019 0.762968 6.085221 11.587365 1.064189 0.200914 -1.665819 0.316815 0.000000 0.000000 0.000000 8.881389 14.297014 2.881428 -23.451072 25.005635 13.579000 -50.769602 -31.219234 -78.730552 0.000000 0.000000 0.000000 6.298867 10.185460 3.886031 -1.749498 -4.795674 10.042600 -8.695621 5.233975 -1.462014 -53.906008 -7.073059 -70.464514 155.529432 -64.341755 162.926841 0.000000 0.000000 0.000000 1.280215 8.541116 5.602776 -13.563367 -7.438863 -19.252707 -56.861137 -20.242702 -5.618126 -95.178420 40.265833 126.278737 -16.308882 23.759761 27.073280 0.000000 0.000000 0.000000 
-3.734757 71.134811 -138.707153 0.000000 0.000000 0.000000 16.632615 -61.942972 13.500404 -58.312159 -15.381719 20.466165 41.585146 -15.888401 6.116005 21.667906 -6.225343 -24.509418 -11.542681 0.797465 -6.880880 0.000000 0.000000 0.000000 16.309064 -63.200902 13.460796 -40.409264 0.823108 -27.553914 54.776102 14.082720 2.602440 -12.271067 -5.731881 26.790515 -4.744159 5.454879 -7.085503 0.000000 0.000000 0.000000 16.965647 -57.234465 11.837817 2.220998 14.522801 0.487589 6.597337 11.620670 0.881282 0.201562 -1.650503 0.311901 0.000000 0.000000 0.000000 9.165330 14.316066 2.747834 -24.195930 24.767507 15.705293 -52.116850 -30.916025 -78.547722 0.000000 0.000000 0.000000 6.387966 10.313370 3.517357 -2.124591 -4.170932 10.335689 -8.041609 4.942195 -0.188278 -54.152947 -8.010634 -71.388188 153.312175 -64.323832 160.381612 0.000000 0.000000 0.000000 1.761968 8.788704 5.444633 -13.802009 -8.345128 -20.103755 -56.824257 -19.993350 -4.685255 -95.970913 40.546940 126.063367 -16.472456 23.650746 27.283850 0.000000 0.000000 0.000000 
-4.164199 71.057785 -138.941727 0.000000 0.000000 0.000000 15.566776 -62.446787 13.372881 -57.323975 -14.402697 20.580472 40.616919 -16.055160 5.477388 22.049305 -5.199621 -22.755287 -9.749412 0.596202 -6.669248 0.000000 0.000000 0.000000 14.735150 -62.392863 12.849338 -40.258399 2.108955 -27.536726 56.469368 14.004534 2.262533 -12.654402 -6.804356 27.720427 -5.350995 5.320730 -7.353710 0.000000 0.000000 0.000000 16.125221 -56.819753 10.961227 2.162160 14.247229 0.122050 7.022040 11.685116 0.824991 0.201676 -1.598819 0.339059 0.000000 0.000000 0.000000 9.539782 14.366152 2.642874 -24.539089 24.590238 17.869254 -53.203612 -30.840985 -78.248689 0.000000 0.000000 0.000000 6.522126 10.440729 3.259140 -2.409256 -3.808943 10.682054 -7.637032 4.761728 0.829340 -54.056381 -8.523504 -72.010760 151.104207 -64.245149 157.599949 0.000000 0.000000 0.000000 2.200534 9.014963 5.315765 -13.979846 -9.064298 -20.700944 -57.000360 -19.822568 -4.160389 -96.671567 40.760363 125.785488 -16.533678 23.643461 27.471159 0.000000 0.000000 0.000000 
-4.360265 71.430984 -139.251587 0.000000 0.000000 0.000000 14.301848 -62.417998 12.956795 -56.902706 -14.119481 20.640128 40.665601 -16.427723 4.693698 22.720271 -4.730530 -21.704804 -9.559729 0.424542 -6.355562 0.000000 0.000000 0.000000 13.294994 -62.621797 12.419844 -39.980734 3.004019 -27.205504 56.935057 13.876192 2.037146 -11.970759 -7.346161 28.259841 -4.917168 5.107456 -6.583017 0.000000 0.000000 0.000000 15.487290 -56.793347 10.303032 2.107450 13.880825 -0.280463 7.293520 11.749011 0.828794 0.195617 -1.561575 0.358494 0.000000 0.000000 0.000000 10.032250 14.399950 2.543376 -24.524023 24.487630 19.970387 -53.727733 -31.002939 -77.826563 0.000000 0.000000 0.000000 6.658992 10.519685 3.106724 -2.561976 -3.659444 11.117268 -7.963390 4.691661 1.090360 -53.705357 -8.391047 -72.298550 149.138178 -64.211729 154.988467 0.000000 0.000000 0.000000 2.553060 9.135107 5.203121 -14.102823 -9.686244 -20.901373 -56.822932 -19.551620 -4.024785 -97.101787 41.102531 125.613012 -16.526158 23.733482 27.703638 0.000000 0.000000 0.000000 
